# xmcd
#
# Track frame offsets:
#	150
#	21045
#	39055
#	60185
#	75537
#	98207
#	116382
#	137965
#	161975
#	186385
#	208427
#	225837
#
# Disc length: 3239 seconds
#
# Revision: 1
# Processed by: cddbd v1.5.1PL0 Copyright (c) Steve Scherf et al.
# Submitted via: CDex 1.50Beta5
#
DISCID=950ca50c
DTITLE=高石タケル(山本泰輔) - デジモンアドベンチャー02 ベスト!ベスト!ベストパートナー〜選ばれし子供達編〜
DYEAR=2001
DGENRE=
TTITLE0=高石タケル(山本泰輔)/FOCUS
TTITLE1=泉光子郎(天神有海)/OPEN MIND
TTITLE2=本宮大輔(木内レイコ)/ゴーグル・ボーイ
TTITLE3=火田伊織(浦和めぐみ)/僕の結論
TTITLE4=八神ヒカリ(荒木香恵)/やさしい雨
TTITLE5=太刀川ミミ(前田愛)/スーパー☆ガール
TTITLE6=八神太一(藤田淑子)/新しい太陽
TTITLE7=一乗寺賢(朴ロ美)/ONLY ONE
TTITLE8=城戸丈(菊地正美)/風に向かって
TTITLE9=竹之内空(水谷優子)/Shiny Days
TTITLE10=井ノ上京(夏樹リオ)/クラッシュでビンゴ!
TTITLE11=石田ヤマト(風間勇刀)/願いかなえるカギ
EXTD=
EXTT0=
EXTT1=
EXTT2=
EXTT3=
EXTT4=
EXTT5=
EXTT6=
EXTT7=
EXTT8=
EXTT9=
EXTT10=
EXTT11=
PLAYORDER=
